<svg id="Duotone" xmlns="http://www.w3.org/2000/svg" viewBox="0 0 152.68 100"><path d="M137.41,61.07A61.07,61.07,0,1,0,20.7,86.26H132A60.78,60.78,0,0,0,137.41,61.07Z" style="fill:#cce6e5"/><line x1="16.79" y1="86.26" x2="135.89" y2="86.26" style="fill:#cce6e5;stroke:#00837e;stroke-linecap:round;stroke-linejoin:round;stroke-width:1.526804873086445px"/><line x1="9.92" y1="86.26" x2="13.74" y2="86.26" style="fill:#cce6e5;stroke:#00837e;stroke-linecap:round;stroke-linejoin:round;stroke-width:1.526804873086445px"/><line x1="138.94" y1="86.26" x2="142.76" y2="86.26" style="fill:#cce6e5;stroke:#00837e;stroke-linecap:round;stroke-linejoin:round;stroke-width:1.526804873086445px"/><path d="M87.24,25.69H68.92A10.21,10.21,0,0,0,58.71,35.9V44h8.47V37.13a3,3,0,0,1,3-3H86a3,3,0,0,1,3,3V44h8.49V35.9A10.23,10.23,0,0,0,87.24,25.69Z" style="fill:#fff"/><path d="M69.59,65.81H31.76V51.55A7.54,7.54,0,0,1,39.3,44h77.53a7.54,7.54,0,0,1,7.54,7.54h0V65.81H86.55" style="fill:#66b5b2"/><path d="M31.76,65.81h92.61v22a6.1,6.1,0,0,1-6.1,6.1H37.86a6.1,6.1,0,0,1-6.1-6.1v-22Z" style="fill:#66b5b2"/><ellipse cx="78.14" cy="96.98" rx="46.45" ry="3.02" style="fill:#5cb0ac"/><path d="M69.59,65.81H31.76V51.55A7.54,7.54,0,0,1,39.3,44h77.53a7.54,7.54,0,0,1,7.54,7.54h0V65.81H86.55" style="fill:none;stroke:#00837e;stroke-miterlimit:10;stroke-width:1.526804873086445px"/><path d="M87.24,25.69H68.92A10.21,10.21,0,0,0,58.71,35.9V44h8.47V37.13a3,3,0,0,1,3-3H86a3,3,0,0,1,3,3V44h8.49V35.9A10.23,10.23,0,0,0,87.24,25.69Z" style="fill:none;stroke:#00837e;stroke-miterlimit:10;stroke-width:1.526804873086445px"/><path d="M31.76,65.81h92.61v22a6.1,6.1,0,0,1-6.1,6.1H37.86a6.1,6.1,0,0,1-6.1-6.1v-22Z" style="fill:none;stroke:#00837e;stroke-linejoin:round;stroke-width:1.526804873086445px"/><rect x="69.59" y="58.55" width="16.96" height="19.39" rx="1.8" style="fill:#fff"/><rect x="69.59" y="58.55" width="16.96" height="19.39" rx="1.8" style="fill:none;stroke:#00837e;stroke-linejoin:round;stroke-width:1.526804873086445px"/><path d="M81.7,77.94H74.43V67a3.66,3.66,0,0,1,3.64-3.65h0A3.63,3.63,0,0,1,81.7,67V77.94Z" style="fill:none;stroke:#00837e;stroke-linejoin:round;stroke-width:1.526804873086445px"/></svg>