<svg id="Duotone" xmlns="http://www.w3.org/2000/svg" viewBox="0 0 126.03 100"><path d="M119.58,56.71A56.44,56.44,0,1,0,11.75,80H114.56A56.13,56.13,0,0,0,119.58,56.71Z" style="fill:#cce6e5"/><line x1="8.14" y1="79.99" x2="118.19" y2="79.99" style="fill:#cce6e5;stroke:#00837e;stroke-linecap:round;stroke-linejoin:round;stroke-width:2.1541672044401423px"/><line x1="1.79" y1="79.99" x2="5.32" y2="79.99" style="fill:#cce6e5;stroke:#00837e;stroke-linecap:round;stroke-linejoin:round;stroke-width:2.1541672044401423px"/><line x1="121.01" y1="79.99" x2="124.54" y2="79.99" style="fill:#cce6e5;stroke:#00837e;stroke-linecap:round;stroke-linejoin:round;stroke-width:2.1541672044401423px"/><ellipse cx="43.41" cy="97.63" rx="29.63" ry="2.12" style="fill:#5cb0ac"/><path d="M67.38,49a8.47,8.47,0,0,0,8.47-8.46V23.56A16.94,16.94,0,0,0,59,6.59c-.38,0-.77,0-1.15,0A17.32,17.32,0,0,0,42,24.14V40.49A8.47,8.47,0,0,0,50.45,49Z" style="fill:#fff"/><path d="M67.38,49a8.47,8.47,0,0,0,8.47-8.46V23.56A16.94,16.94,0,0,0,59,6.59c-.38,0-.77,0-1.15,0A17.32,17.32,0,0,0,42,24.14V40.49A8.47,8.47,0,0,0,50.45,49Z" style="fill:#fff;stroke:#00837e;stroke-linecap:round;stroke-linejoin:round;stroke-width:2.1541672044401423px"/><path d="M72.32,70.82a10.58,10.58,0,0,0,21.16,0V58.13a.7.7,0,0,0-.7-.71H85.72a.7.7,0,0,0-.7.71V70.82a2.12,2.12,0,0,1-4.24,0V69.41a21.87,21.87,0,1,0-43.73,0V80H72.32Z" style="fill:#66b5b2"/><path d="M72.32,70.82a10.58,10.58,0,0,0,21.16,0V58.13a.7.7,0,0,0-.7-.71H85.72a.7.7,0,0,0-.7.71V70.82a2.12,2.12,0,0,1-4.24,0V69.41a21.87,21.87,0,1,0-43.73,0V80H72.32Z" style="fill:none;stroke:#00837e;stroke-linejoin:round;stroke-width:2.1541672044401423px"/><path d="M68,48.77a5.64,5.64,0,0,0-4.86-2.64H54.71a5.65,5.65,0,0,0-4.87,2.64,5.43,5.43,0,0,0-.42,4.6l1.91,5.26a1.39,1.39,0,0,0,1.8.85l.24-.11L59,56l5.65,3.36a1.42,1.42,0,0,0,1.93-.5.88.88,0,0,0,.11-.24l1.91-5.26A5.41,5.41,0,0,0,68,48.77Z" style="fill:#66b5b2;stroke:#00837e;stroke-linecap:round;stroke-linejoin:round;stroke-width:1.4108988269637106px"/><line x1="58.93" y1="56.01" x2="58.93" y2="79.99" style="fill:none;stroke:#4550e5;stroke-linecap:round;stroke-linejoin:round;stroke-width:1.4108988269637106px"/><polygon points="63.87 51.07 58.93 56.01 53.99 51.07 53.99 43.31 63.87 43.31 63.87 51.07" style="fill:#fff"/><polygon points="63.87 51.07 58.93 56.01 53.99 51.07 53.99 43.31 63.87 43.31 63.87 51.07" style="fill:none;stroke:#00837e;stroke-linecap:round;stroke-linejoin:round;stroke-width:1.4108988269637106px"/><line x1="45.53" y1="67.3" x2="45.53" y2="79.99" style="fill:none;stroke:#4550e5;stroke-linecap:round;stroke-linejoin:round;stroke-width:1.4108988269637106px"/><line x1="72.33" y1="67.3" x2="72.33" y2="79.99" style="fill:none;stroke:#4550e5;stroke-linecap:round;stroke-linejoin:round;stroke-width:1.4108988269637106px"/><path d="M73,28.5V24a15.53,15.53,0,0,1-19.1-4.14,7.76,7.76,0,0,1-7.66,6.52,7.41,7.41,0,0,1-1.41-.14V28.5a2.82,2.82,0,0,0,0,5.64H45a14.11,14.11,0,0,0,27.83,0H73a2.82,2.82,0,1,0,0-5.64Z" style="fill:#fff;stroke:#00837e;stroke-linecap:round;stroke-linejoin:round;stroke-width:2.1541672044401423px"/><path d="M54.67,38.09a6.15,6.15,0,0,0,8.46,0" style="fill:none;stroke:#00837e;stroke-linecap:round;stroke-linejoin:round;stroke-width:1.4108988269637106px"/><path d="M66.68,29.91a2.3,2.3,0,0,0-4.24,0" style="fill:none;stroke:#00837e;stroke-linecap:round;stroke-linejoin:round;stroke-width:1.4108988269637106px"/><path d="M55.4,29.91a2.3,2.3,0,0,0-4.23,0" style="fill:none;stroke:#00837e;stroke-linecap:round;stroke-linejoin:round;stroke-width:1.4108988269637106px"/><circle cx="50.82" cy="34.49" r="1.76" style="fill:#cce6e5"/><circle cx="67.04" cy="34.49" r="1.76" style="fill:#cce6e5"/><path d="M90.66,41.19a2.12,2.12,0,0,0-4.23,0v9.18h4.23Z" style="fill:#fff"/><path d="M90.66,41.19a2.12,2.12,0,0,0-4.23,0v9.18h4.23Z" style="fill:none;stroke:#00837e;stroke-linecap:round;stroke-linejoin:round;stroke-width:1.4108988269637106px"/><path d="M82.9,52.14A3.21,3.21,0,0,1,86.1,49h8.09v3.94a2.35,2.35,0,0,1-.71,1.71h0a2.42,2.42,0,0,0-.7,1.71v1.11H85.72V55.3l-1.25-.63A2.83,2.83,0,0,1,82.9,52.14Z" style="fill:#fff;stroke:#00837e;stroke-linecap:round;stroke-linejoin:round;stroke-width:1.4108988269637106px"/><rect x="87.25" y="45.92" width="7.05" height="9.88" rx="2.82" transform="translate(19.51 126.67) rotate(-76.03)" style="fill:#fff"/><rect x="87.25" y="45.92" width="7.05" height="9.88" rx="2.82" transform="translate(19.51 126.67) rotate(-76.03)" style="fill:none;stroke:#00837e;stroke-linecap:round;stroke-linejoin:round;stroke-width:1.410898838395022px"/><rect x="14.49" y="48.95" width="57.85" height="40.92" rx="2.82" style="fill:#fff"/><path d="M53.27,94.1a.76.76,0,0,1,.52.23.79.79,0,0,1,.19.55,2.31,2.31,0,0,1-2.29,2.05H35.09a2.31,2.31,0,0,1-2.26-2.05.78.78,0,0,1,.18-.55.75.75,0,0,1,.52-.23Z" style="fill:#cce6e5;stroke:#00837e;stroke-linecap:round;stroke-linejoin:round;stroke-width:2.1541672044401423px"/><rect x="14.49" y="48.95" width="57.85" height="40.92" rx="2.82" style="fill:#66b5b2;stroke:#00837e;stroke-linecap:round;stroke-linejoin:round;stroke-width:2.1541672044401423px"/><path d="M51.86,96.93H34.93c1.75-4.67,2.54-16.57,2.82-20.55a1.42,1.42,0,0,1,1.41-1.32h8.6a1.42,1.42,0,0,1,1.41,1.32C49.34,80.36,50.13,92.26,51.86,96.93Z" style="fill:#339c98;stroke:#00837e;stroke-linecap:round;stroke-linejoin:round;stroke-width:2.1541672044401423px"/><line x1="19.42" y1="83.52" x2="19.42" y2="85.64" style="fill:#cce6e5;stroke:#00837e;stroke-linecap:round;stroke-linejoin:round;stroke-width:2.1541672044401423px"/><line x1="22.25" y1="83.52" x2="22.25" y2="85.64" style="fill:#cce6e5;stroke:#00837e;stroke-linecap:round;stroke-linejoin:round;stroke-width:2.1541672044401423px"/><line x1="25.07" y1="83.52" x2="25.07" y2="85.64" style="fill:#cce6e5;stroke:#00837e;stroke-linecap:round;stroke-linejoin:round;stroke-width:2.1541672044401423px"/><line x1="27.89" y1="83.52" x2="27.89" y2="85.64" style="fill:#cce6e5;stroke:#00837e;stroke-linecap:round;stroke-linejoin:round;stroke-width:2.1541672044401423px"/><path d="M45,64.69a1.54,1.54,0,0,1,.75-1.33,1.63,1.63,0,0,0-1.27-.68A9.94,9.94,0,0,0,43.1,63c-.27,0-.71-.31-1.14-.29a1.68,1.68,0,0,0-1.41.86,3.63,3.63,0,0,0,.43,3.5c.3.42.64.89,1.1.87s.61-.28,1.13-.28.68.28,1.15.27.77-.43,1-.85a4.19,4.19,0,0,0,.5-1A1.48,1.48,0,0,1,45,64.69Z" style="fill:#cce6e5;stroke:#00837e;stroke-linecap:round;stroke-linejoin:round;stroke-width:2.1541672044401423px"/><line x1="43.76" y1="60.88" x2="44.4" y2="60.24" style="fill:none;stroke:#00837e;stroke-linecap:round;stroke-linejoin:round;stroke-width:1.4108988269637106px"/><line x1="18.72" y1="51.78" x2="67.4" y2="51.78" style="fill:#cce6e5;stroke:#00837e;stroke-linecap:round;stroke-linejoin:round;stroke-width:2.1541672044401423px"/><path d="M95.61,20A6.35,6.35,0,1,0,84.4,24.12a5.69,5.69,0,0,1,1.34,3.63v1.41h7.05V27.75a5.62,5.62,0,0,1,1.33-3.63A6.35,6.35,0,0,0,95.61,20Z" style="fill:#fff"/><path d="M95.61,20A6.35,6.35,0,1,0,84.4,24.12a5.69,5.69,0,0,1,1.34,3.63v1.41h7.05V27.75a5.62,5.62,0,0,1,1.33-3.63A6.35,6.35,0,0,0,95.61,20Z" style="fill:none;stroke:#00837e;stroke-linejoin:round;stroke-width:1.4108988269637106px"/><path d="M91.38,32H87.15a1.41,1.41,0,0,1-1.41-1.41V29.2h7.05v1.41A1.41,1.41,0,0,1,91.38,32Z" style="fill:#66b5b2;stroke:#00837e;stroke-linejoin:round;stroke-width:1.4108988269637106px"/><path d="M91.38,32.73a2.12,2.12,0,1,1-4.23,0V32h4.23Z" style="fill:#66b5b2;stroke:#00837e;stroke-linejoin:round;stroke-width:1.4108988269637106px"/><line x1="89.26" y1="10.86" x2="89.26" y2="9.45" style="fill:none;stroke:#00837e;stroke-linecap:round;stroke-linejoin:round;stroke-width:1.4108988269637106px"/><line x1="95.74" y1="13.54" x2="96.74" y2="12.55" style="fill:none;stroke:#00837e;stroke-linecap:round;stroke-linejoin:round;stroke-width:1.4108988269637106px"/><line x1="98.43" y1="20.03" x2="99.85" y2="20.03" style="fill:none;stroke:#00837e;stroke-linecap:round;stroke-linejoin:round;stroke-width:1.4108988269637106px"/><line x1="82.77" y1="13.54" x2="81.77" y2="12.55" style="fill:none;stroke:#00837e;stroke-linecap:round;stroke-linejoin:round;stroke-width:1.4108988269637106px"/><line x1="80.09" y1="20.03" x2="78.68" y2="20.03" style="fill:none;stroke:#00837e;stroke-linecap:round;stroke-linejoin:round;stroke-width:1.4108988269637106px"/></svg>