<svg id="Duotone" xmlns="http://www.w3.org/2000/svg" viewBox="0 0 124.37 100"><line x1="118.98" y1="79.15" x2="122.46" y2="79.15" style="fill:#cce6e5;stroke:#00837e;stroke-linecap:round;stroke-linejoin:round;stroke-width:2.119942854026322px"/><ellipse cx="82.3" cy="96.88" rx="15.97" ry="2.4" style="fill:#5cb0ac"/><path d="M117.6,56.25A55.54,55.54,0,1,0,11.46,79.16H112.64A55.33,55.33,0,0,0,117.6,56.25Z" style="fill:#cce6e5"/><line x1="7.91" y1="79.15" x2="116.21" y2="79.15" style="fill:#cce6e5;stroke:#00837e;stroke-linecap:round;stroke-linejoin:round;stroke-width:2.119942854026322px"/><line x1="1.66" y1="79.15" x2="5.13" y2="79.15" style="fill:#cce6e5;stroke:#00837e;stroke-linecap:round;stroke-linejoin:round;stroke-width:2.119942854026322px"/><path d="M70,80.76H29.73V21.05a1.6,1.6,0,0,1,1.6-1.59H68.4A1.58,1.58,0,0,1,70,21V80.76Z" style="fill:#fff"/><path d="M70,80.76H29.73V21.05a1.6,1.6,0,0,1,1.6-1.59H68.4A1.58,1.58,0,0,1,70,21V80.76Z" style="fill:none;stroke:#00837e;stroke-linecap:round;stroke-linejoin:round;stroke-width:1.3884831594366378px"/><line x1="45.09" y1="39.56" x2="54.67" y2="39.56" style="fill:none;stroke:#00837e;stroke-linecap:round;stroke-linejoin:round;stroke-width:1.3884831594366378px"/><line x1="37.43" y1="43.4" x2="62.33" y2="43.4" style="fill:none;stroke:#00837e;stroke-linecap:round;stroke-linejoin:round;stroke-width:1.3884831594366378px"/><path d="M55.63,30a5.75,5.75,0,1,1-5.75-5.75h0A5.76,5.76,0,0,1,55.63,30Z" style="fill:#66b5b2;stroke:#00837e;stroke-linecap:round;stroke-linejoin:round;stroke-width:1.3884831594366378px"/><path d="M25.93,62.56,47.16,48.41a3.17,3.17,0,0,1,3.54,0L71.92,62.56,54.67,73.09H43.17Z" style="fill:#66b5b2;stroke:#00837e;stroke-linecap:round;stroke-linejoin:round;stroke-width:1.3884831594366378px"/><path d="M35,53.93H62.86a1.39,1.39,0,0,1,1.39,1.39V73.09H33.61V55.32A1.39,1.39,0,0,1,35,53.93Z" style="fill:#fff"/><path d="M35,53.93H62.86a1.39,1.39,0,0,1,1.39,1.39V73.09H33.61V55.32A1.39,1.39,0,0,1,35,53.93Z" style="fill:none;stroke:#00837e;stroke-linecap:round;stroke-linejoin:round;stroke-width:1.3884831594366378px"/><path d="M51.8,61.6a2.88,2.88,0,1,1-2.92-2.88A2.87,2.87,0,0,1,51.8,61.6Z" style="fill:#66b5b2;stroke:#00837e;stroke-linecap:round;stroke-linejoin:round;stroke-width:1.3884831594366378px"/><line x1="45.09" y1="68.3" x2="52.75" y2="68.3" style="fill:none;stroke:#00837e;stroke-linecap:round;stroke-linejoin:round;stroke-width:1.3884831594366378px"/><polygon points="54.67 73.09 43.17 73.09 25.93 62.56 25.93 86.51 71.92 86.51 71.92 62.56 54.67 73.09" style="fill:#fff"/><polygon points="54.67 73.09 43.17 73.09 25.93 62.56 25.93 86.51 71.92 86.51 71.92 62.56 54.67 73.09" style="fill:none;stroke:#00837e;stroke-linecap:round;stroke-linejoin:round;stroke-width:1.3884831594366378px"/><polygon points="25.93 86.51 43.17 73.09 54.67 73.09 71.92 86.51 25.93 86.51" style="fill:#fff;stroke:#00837e;stroke-linecap:round;stroke-linejoin:round;stroke-width:1.3884831594366378px"/><path d="M92.55,92.26a1.92,1.92,0,0,1-.93-3.6c4.16-1.57,9.52-2.42,9.52-8.93A2.78,2.78,0,0,0,98.37,77H94.44a1.92,1.92,0,1,1,0-3.83h3.9A6.66,6.66,0,0,1,105,79.76c0,9.18-8.06,11-11.5,12.27A1.91,1.91,0,0,1,92.55,92.26Z" style="fill:#fff;stroke:#00837e;stroke-linecap:round;stroke-linejoin:round;stroke-width:1.3884831594366378px"/><path d="M87.45,75,81.9,73.54l6.58-25a2.87,2.87,0,0,1,5.62,1.2A2.33,2.33,0,0,1,94,50Z" style="fill:#fff;stroke:#00837e;stroke-linecap:round;stroke-linejoin:round;stroke-width:1.3884831594366378px"/><path d="M93.31,52.77l1.85.48a2.88,2.88,0,0,1,2.06,3.51h0l-1.95,7.41" style="fill:none;stroke:#00837e;stroke-linecap:round;stroke-linejoin:round;stroke-width:1.3884831594366378px"/><rect x="85.95" y="55.66" width="5.75" height="5.75" transform="translate(9.62 129.54) rotate(-75.26)" style="fill:#66b5b2;stroke:#00837e;stroke-linecap:round;stroke-linejoin:round;stroke-width:1.3884831669316604px"/><rect x="75.28" y="50.1" width="5.75" height="21.08" style="fill:#fff;stroke:#00837e;stroke-linecap:round;stroke-linejoin:round;stroke-width:1.3884831594366378px"/><polygon points="75.28 50.09 78.15 42.44 81.02 50.09 75.28 50.09" style="fill:#fff;stroke:#00837e;stroke-linecap:round;stroke-linejoin:round;stroke-width:1.3884831594366378px"/><path d="M70.92,71.18H93.05a1.39,1.39,0,0,1,1.39,1.39V91.09a5,5,0,0,1-5,5H74.53a5,5,0,0,1-5-5V72.57A1.39,1.39,0,0,1,70.92,71.18Z" style="fill:#fff"/><path d="M70.92,71.18H93.05a1.39,1.39,0,0,1,1.39,1.39V91.09a5,5,0,0,1-5,5H74.53a5,5,0,0,1-5-5V72.57A1.39,1.39,0,0,1,70.92,71.18Z" style="fill:none;stroke:#00837e;stroke-linecap:round;stroke-linejoin:round;stroke-width:1.3884831594366378px"/><circle cx="81.98" cy="81.72" r="4.79" style="fill:#66b5b2;stroke:#00837e;stroke-linecap:round;stroke-linejoin:round;stroke-width:1.3884831594366378px"/><line x1="77.19" y1="90.34" x2="86.77" y2="90.34" style="fill:none;stroke:#00837e;stroke-linecap:round;stroke-linejoin:round;stroke-width:1.3884831594366378px"/></svg>