<svg width="64" height="64" viewBox="0 0 64 64" fill="none" xmlns="http://www.w3.org/2000/svg">
<path d="M42.6654 60.7205C30.1011 65.3818 15.9653 61.3449 7.75734 50.7517C-0.450638 40.1584 -0.829625 25.4624 6.82144 14.4602C14.4725 3.45794 28.3814 -1.30211 41.1693 2.70533C53.9571 6.71278 62.6618 18.5595 62.6654 31.9605C62.6654 32.8699 62.6254 33.7712 62.5481 34.6592" stroke="#00837E" stroke-linecap="round" stroke-linejoin="round"/>
<path d="M1.79297 26.6279H18.017C20.1391 26.627 22.1746 27.4692 23.6756 28.9693L26.665 31.9586C29.6612 34.9539 29.8027 39.7658 26.9876 42.9319L23.353 47.0199C22.0511 48.4842 21.3319 50.3753 21.3316 52.3346V60.7213" stroke="#00837E" stroke-linecap="round" stroke-linejoin="round"/>
<path d="M54.0292 10.6279H38.5625C35.2488 10.6279 32.5625 13.3142 32.5625 16.6279C32.5625 19.9416 35.2488 22.6279 38.5625 22.6279H39.7145C42.3925 22.624 44.8949 23.9602 46.3812 26.1879L49.4025 30.7213" stroke="#00837E" stroke-linecap="round" stroke-linejoin="round"/>
<path fill-rule="evenodd" clip-rule="evenodd" d="M62.6654 46.6276C62.6654 53.2943 51.9987 62.6276 51.9987 62.6276C51.9987 62.6276 41.332 53.2943 41.332 46.6276C41.332 40.7366 46.1077 35.9609 51.9987 35.9609C57.8897 35.9609 62.6654 40.7366 62.6654 46.6276Z" stroke="#00837E" stroke-linecap="round" stroke-linejoin="round"/>
<path d="M52 45.9609C52.177 45.9602 52.347 46.0302 52.4722 46.1554C52.5974 46.2806 52.6674 46.4506 52.6667 46.6276" stroke="#00837E" stroke-linecap="round" stroke-linejoin="round"/>
<path d="M51.332 46.6276C51.3313 46.4506 51.4013 46.2806 51.5265 46.1554C51.6517 46.0302 51.8217 45.9602 51.9987 45.9609" stroke="#00837E" stroke-linecap="round" stroke-linejoin="round"/>
<path d="M51.9987 47.2946C51.6305 47.2946 51.332 46.9961 51.332 46.6279" stroke="#00837E" stroke-linecap="round" stroke-linejoin="round"/>
<path d="M52.6667 46.6279C52.6667 46.9961 52.3682 47.2946 52 47.2946" stroke="#00837E" stroke-linecap="round" stroke-linejoin="round"/>
</svg>
